<svg xmlns="http://www.w3.org/2000/svg" xmlns:xlink="http://www.w3.org/1999/xlink" viewBox="0 0 150 61"><path fill="currentColor" d="M60.185 38.206h2.51l-.425-1.917V24.896h-2.398v5.2a3.785 3.785 0 00-2.892-1.3c-2.398 0-4.258 1.962-4.258 4.804 0 2.865 1.86 4.804 4.258 4.804a3.758 3.758 0 002.937-1.366l.268 1.168zm47.425-6.853c.493 0 .941.132 1.345.418l1.143-2.512c-.538-.33-1.143-.463-1.748-.463-1.076 0-1.995.485-2.555 1.389l-.247-1.168h-2.465l.403 1.807v7.404h2.398v-5.884c.314-.617.919-.991 1.726-.991zm7.015 4.583c-1.389 0-2.42-.903-2.42-2.314 0-1.432 1.031-2.314 2.42-2.314 1.412 0 2.421.882 2.421 2.314 0 1.389-1.009 2.314-2.421 2.314zM55.053 33.6c0-1.432 1.03-2.314 2.42-2.314 1.413 0 2.421.882 2.421 2.314 0 1.41-1.008 2.314-2.42 2.314-1.39.022-2.421-.903-2.421-2.314zm70.218 2.336c-1.39 0-2.421-.903-2.421-2.314 0-1.432 1.031-2.314 2.421-2.314 1.412 0 2.421.882 2.421 2.314-.023 1.389-1.031 2.314-2.421 2.314zm-56.748-4.782c1.233 0 2.04.573 2.308 1.631h-4.617c.247-1.08 1.076-1.63 2.309-1.63zm28.665 0c1.233 0 2.04.573 2.309 1.631H94.88c.291-1.08 1.098-1.63 2.308-1.63zM85.49 38.206h3.855l2.51-9.233h-2.622l-1.816 7.492-1.837-7.47H83l2.488 9.21zm-6.163 0h2.398v-9.233h-2.398v9.233zm-10.445.176a7.096 7.096 0 003.743-1.057l-.919-2.028a5.932 5.932 0 01-2.801.705c-1.255 0-2.13-.485-2.533-1.388h6.769c.067-.353.112-.661.112-1.08 0-2.864-2.017-4.76-4.684-4.76-2.712 0-4.684 1.94-4.684 4.804-.023 2.931 1.95 4.804 4.997 4.804zM130 33.6c0-2.864-2.017-4.804-4.729-4.804-2.734 0-4.729 1.962-4.729 4.804 0 2.843 2.017 4.804 4.729 4.804S130 36.465 130 33.6zm-32.475 4.804c1.344 0 2.644-.352 3.742-1.058l-.919-2.027a5.93 5.93 0 01-2.801.705c-1.255 0-2.13-.485-2.533-1.388h6.769c.067-.353.112-.661.112-1.08 0-2.864-2.017-4.76-4.684-4.76-2.712 0-4.684 1.94-4.684 4.804 0 2.953 1.95 4.804 4.998 4.804zm17.1 0c2.734 0 4.729-1.961 4.729-4.804 0-2.842-2.017-4.804-4.729-4.804-2.734 0-4.729 1.962-4.729 4.804 0 2.843 1.995 4.804 4.729 4.804zm-39.85-.198h2.399v-13.31h-2.398v13.31zm5.76-10.49c.83 0 1.502-.66 1.502-1.498a1.48 1.48 0 00-1.501-1.498c-.852 0-1.524.66-1.524 1.498 0 .837.65 1.499 1.524 1.499zM39.32 16.5l-1.368 12.781-2.33-10.776-7.352 1.52 2.309 10.777L20 33.005l1.883 8.594L40.507 45.5l4.259-9.365 2.017-18.864-7.464-.771zm-5.895 18.555c-.381.352-.874.308-1.434.132-.538-.176-.762-.793-.583-1.587.157-.573.852-.66 1.233-.66a.89.89 0 01.403.087c.247.11.672.353.762.706.135.528 0 .97-.381 1.322zm5.401.573c-.291.484-1.008.55-1.748.198-.493-.242-.493-.815-.426-1.19.023-.198.112-.397.247-.55.18-.221.47-.508.784-.508.56-.022 1.009.22 1.278.661.269.441.134.926-.135 1.389z"/></svg>