<svg xmlns="http://www.w3.org/2000/svg" xmlns:xlink="http://www.w3.org/1999/xlink" id="Layer_1" width="64" height="64" x="0" y="0" enable-background="new 0 0 64 64" version="1.1" viewBox="0 0 64 64" xml:space="preserve"><rect width="12" height="53" x="49" y="9" fill="#CFD8DD"/><rect width="12" height="53" x="3" y="9" fill="#CFD8DD"/><path fill="#7AB51D" d="M50.53,60.288c0.179-0.862,2.391-1.341,2.965-0.522c0.363-0.831,1.802-0.666,2.023,0.154	c0.059-0.904,1.938-1.081,2.391-0.394c0.759-1.091,2.593-0.28,2.388,0.571C62.294,60.181,61.982,62,61.982,62H48.021	C47.812,60.393,49.276,59.28,50.53,60.288z"/><path fill="#92C932" d="M51.307,60.909c0.521-1.431,2.644-2.297,3.933-0.584c0.609-0.396,1.625-0.341,1.937,0.101	c0.398-0.465,1.374-0.663,1.854-0.127c0.997-0.608,1.914-0.097,1.914-0.097s-1.339-0.191-1.967,0.741	c-0.397-0.741-1.612-0.503-1.679,0.253c-0.355-0.771-1.44-0.915-2.44-0.266C54.809,60.189,53.039,58.868,51.307,60.909z"/><path fill="#7AB51D" d="M13.47,60.288c-0.179-0.862-2.39-1.341-2.965-0.522c-0.362-0.831-1.801-0.666-2.023,0.154	c-0.059-0.904-1.938-1.081-2.39-0.394c-0.76-1.091-2.594-0.28-2.389,0.571C1.706,60.181,2.018,62,2.018,62h13.962	C16.188,60.393,14.724,59.28,13.47,60.288z"/><path fill="#92C932" d="M12.693,60.909c-0.521-1.431-2.644-2.297-3.933-0.584c-0.609-0.396-1.625-0.341-1.937,0.101	c-0.398-0.465-1.374-0.663-1.854-0.127c-0.997-0.608-1.914-0.097-1.914-0.097s1.339-0.191,1.967,0.741	c0.397-0.741,1.613-0.503,1.679,0.253c0.355-0.771,1.44-0.915,2.44-0.266C9.191,60.189,10.961,58.868,12.693,60.909z"/><rect width="34" height="54" x="15" y="8" fill="#E6EBEF"/><rect width="46" height="1" x="9" y="2" fill="#6E8189"/><rect width="46" height="4" x="9" y="3" fill="#B3C2C6"/><path fill="#99A8AE" d="M43.5,50h-23c-0.275,0-0.5,0.225-0.5,0.5V62h24V50.5C44,50.225,43.775,50,43.5,50z"/><rect width="4.5" height="8.5" x="21" y="53.5" fill="#302C3B"/><rect width="12" height="2" x="26" y="51" fill="#302C3B"/><rect width="5.75" height="8.5" x="26" y="53.5" fill="#302C3B"/><rect width="4.5" height="2" x="21" y="51" fill="#302C3B"/><rect width="4.5" height="2" x="38.5" y="51" fill="#302C3B"/><rect width="4.5" height="8.5" x="38.5" y="53.5" fill="#302C3B"/><rect width="5.75" height="8.5" x="32.25" y="53.5" fill="#302C3B"/><rect width=".18" height="1.5" x="33.32" y="56.75" fill="#FFF"/><rect width=".178" height="1.5" x="30.5" y="56.75" fill="#FFF"/><rect width="12.5" height="1" x="49" y="8" fill="#B3C2C6"/><rect width="13" height="2" x="49" y="6" fill="#4E5E67"/><rect width="12.5" height="1" x="2.5" y="8" fill="#B3C2C6"/><rect width="13" height="2" x="2" y="6" fill="#4E5E67"/><rect width="35" height="1" x="14.5" y="7" fill="#B3C2C6"/><rect width="13" height="3" x="49" y="44" fill="#4E5E67"/><rect width="12.5" height="1" x="49" y="47" fill="#B3C2C6"/><rect width="13" height="3" x="2" y="44" fill="#4E5E67"/><rect width="12.5" height="1" x="2.5" y="47" fill="#B3C2C6"/><rect width="36" height="3" x="14" y="43" fill="#6E8189"/><rect width="35" height="1" x="14.5" y="46" fill="#B3C2C6"/><rect width="36" height="3" x="14" y="4" fill="#6E8189"/><rect width="29" height="7" x="17.5" y="10" fill="#99A8AE"/><rect width="28" height="6" x="18" y="10.5" fill="#302C3B"/><rect width=".5" height="7" x="38.875" y="10" fill="#99A8AE"/><rect width=".5" height="7" x="31.75" y="10" fill="#99A8AE"/><rect width=".5" height="7" x="24.625" y="10" fill="#99A8AE"/><rect width="29" height=".5" x="17.5" y="12.25" fill="#99A8AE"/><rect width="29" height="7" x="17.5" y="21.5" fill="#99A8AE"/><rect width="28" height="6" x="18" y="22" fill="#302C3B"/><rect width=".5" height="7" x="38.875" y="21.5" fill="#99A8AE"/><rect width=".5" height="7" x="31.75" y="21.5" fill="#99A8AE"/><rect width=".5" height="7" x="24.625" y="21.5" fill="#99A8AE"/><rect width="29" height=".5" x="17.5" y="23.75" fill="#99A8AE"/><rect width="7.625" height="7" x="51.188" y="11" fill="#99A8AE"/><rect width="6.625" height="6" x="51.688" y="11.5" fill="#302C3B"/><rect width="7.625" height=".5" x="51.188" y="13.25" fill="#99A8AE"/><rect width="7.625" height="7" x="51.188" y="22.5" fill="#99A8AE"/><rect width="6.625" height="6" x="51.688" y="23" fill="#302C3B"/><rect width="7.625" height=".5" x="51.188" y="24.75" fill="#99A8AE"/><rect width="7.625" height="7" x="51.188" y="50" fill="#99A8AE"/><rect width="6.625" height="6" x="51.688" y="50.5" fill="#302C3B"/><rect width="7.625" height=".5" x="51.188" y="52.25" fill="#99A8AE"/><rect width="7.625" height="7" x="5.188" y="11" fill="#99A8AE"/><rect width="6.625" height="6" x="5.688" y="11.5" fill="#302C3B"/><rect width="7.625" height=".5" x="5.188" y="13.25" fill="#99A8AE"/><rect width="7.625" height="7" x="5.188" y="22.5" fill="#99A8AE"/><rect width="6.625" height="6" x="5.688" y="23" fill="#302C3B"/><rect width="7.625" height=".5" x="5.188" y="24.75" fill="#99A8AE"/><rect width="29" height="7" x="17.5" y="33" fill="#99A8AE"/><rect width="28" height="6" x="18" y="33.5" fill="#302C3B"/><rect width=".5" height="7" x="38.875" y="33" fill="#99A8AE"/><rect width=".5" height="7" x="31.75" y="33" fill="#99A8AE"/><rect width=".5" height="7" x="24.625" y="33" fill="#99A8AE"/><rect width="29" height=".5" x="17.5" y="35.25" fill="#99A8AE"/><rect width="7.625" height="7" x="51.188" y="34" fill="#99A8AE"/><rect width="6.625" height="6" x="51.688" y="34.5" fill="#302C3B"/><rect width="7.625" height=".5" x="51.188" y="36.25" fill="#99A8AE"/><rect width="7.625" height="7" x="5.188" y="34" fill="#99A8AE"/><rect width="6.625" height="6" x="5.688" y="34.5" fill="#302C3B"/><rect width="7.625" height=".5" x="5.188" y="36.25" fill="#99A8AE"/><rect width="7.625" height="7" x="5.188" y="50" fill="#99A8AE"/><rect width="6.625" height="6" x="5.688" y="50.5" fill="#302C3B"/><rect width="7.625" height=".5" x="5.188" y="52.25" fill="#99A8AE"/></svg>