<svg xmlns="http://www.w3.org/2000/svg" xmlns:xlink="http://www.w3.org/1999/xlink" id="Layer_1" width="64" height="64" x="0" y="0" enable-background="new 0 0 64 64" version="1.1" viewBox="0 0 64 64" xml:space="preserve"><linearGradient id="SVGID_1_" x1="133.645" x2="133.645" y1="81.666" y2="50.304" gradientTransform="matrix(0.7071 0.7071 -0.7071 0.7071 -34.7554 -90.2472)" gradientUnits="userSpaceOnUse"><stop offset="0" style="stop-color:#ff7b00"/><stop offset=".242" style="stop-color:#fb6b00"/><stop offset=".711" style="stop-color:#f04200"/><stop offset="1" style="stop-color:#e82500"/></linearGradient><path fill="url(#SVGID_1_)" d="M18.942,34.59C6.561,40.933,3.04,55.003,3.04,55.003s1.469-1.807,4.212-4.242C3.598,57.079,2,62,2,62	s4.912-1.586,11.232-5.242C10.802,59.496,9,60.962,9,60.962s14.067-3.521,20.409-15.904L18.942,34.59z"/><linearGradient id="SVGID_2_" x1="133.644" x2="133.644" y1="73.101" y2="51.672" gradientTransform="matrix(0.7071 0.7071 -0.7071 0.7071 -34.7554 -90.2472)" gradientUnits="userSpaceOnUse"><stop offset="0" style="stop-color:#fa0"/><stop offset=".175" style="stop-color:#ffa400"/><stop offset=".418" style="stop-color:#ff9200"/><stop offset=".701" style="stop-color:#ff7400"/><stop offset="1" style="stop-color:#ff4d00"/></linearGradient><path fill="url(#SVGID_2_)" d="M19.082,36.664c-8.778,4.015-10.63,14.185-10.63,14.185s0.986-1.251,2.877-2.899	c-2.355,4.458-3.272,7.995-3.272,7.995s3.53-0.908,7.99-3.267c-1.646,1.887-2.896,2.87-2.896,2.87s10.169-1.85,14.185-10.63	L19.082,36.664z"/><linearGradient id="SVGID_3_" x1="133.647" x2="133.647" y1="66.975" y2="51.672" gradientTransform="matrix(0.7071 0.7071 -0.7071 0.7071 -34.7554 -90.2472)" gradientUnits="userSpaceOnUse"><stop offset="0" style="stop-color:#ffb500"/><stop offset=".087" style="stop-color:#ffba00"/><stop offset=".674" style="stop-color:#ffda00"/><stop offset="1" style="stop-color:#ffe600"/></linearGradient><path fill="url(#SVGID_3_)" d="M19.854,37.437c-5.014,5.236-7.465,14.176-7.465,14.176s8.933-2.445,14.177-7.465L19.854,37.437z"/><linearGradient id="SVGID_4_" x1="141.64" x2="154.103" y1="44.097" y2="44.097" gradientTransform="matrix(0.7071 0.7071 -0.7071 0.7071 -34.7554 -90.2472)" gradientUnits="userSpaceOnUse"><stop offset="0" style="stop-color:#005687"/><stop offset="1" style="stop-color:#2289c7"/></linearGradient><path fill="url(#SVGID_4_)" d="M43.99,48.097c0.568-7.62-0.553-13.197-0.553-13.197s-12.111,6.819-10.41,8.52	c4.692,4.693,5.106,6.923,0.225,11.805c-0.234,0.234,0.209,0.549,0.457,0.456C39.086,53.655,43.846,50.038,43.99,48.097z"/><linearGradient id="SVGID_5_" x1="113.188" x2="125.652" y1="44.097" y2="44.097" gradientTransform="matrix(0.7071 0.7071 -0.7071 0.7071 -34.7554 -90.2472)" gradientUnits="userSpaceOnUse"><stop offset="0" style="stop-color:#2289c7"/><stop offset="1" style="stop-color:#005687"/></linearGradient><path fill="url(#SVGID_5_)" d="M15.904,20.01c-1.941,0.145-5.559,4.905-7.583,10.282c-0.094,0.248,0.222,0.691,0.456,0.457	c4.881-4.881,7.111-4.468,11.805,0.226c1.7,1.701,8.52-10.41,8.52-10.41S23.523,19.443,15.904,20.01z"/><radialGradient id="SVGID_6_" cx="133.644" cy="46.926" r="8.768" gradientTransform="matrix(0.7071 0.7071 -0.7071 0.7071 -34.7554 -90.2472)" gradientUnits="userSpaceOnUse"><stop offset="0" style="stop-color:#657078"/><stop offset=".265" style="stop-color:#606b72"/><stop offset=".613" style="stop-color:#525b62"/><stop offset="1" style="stop-color:#3c4247"/></radialGradient><path fill="url(#SVGID_6_)" d="M24.812,25.159c-9.119,9.119-8.739,12.305-3.507,17.537c5.229,5.23,8.417,5.612,17.536-3.508	L24.812,25.159z"/><path fill="#302C3B" d="M30.17,36.718c-3.588,3.59-6.174,6.821-5.776,7.219c0.401,0.4,3.632-2.184,7.222-5.774L30.17,36.718z"/><path fill="#302C3B" d="M34.501,38.161c-3.587,3.592-6.174,6.822-5.774,7.221c0.399,0.399,3.632-2.187,7.22-5.775L34.501,38.161z"/><path fill="#302C3B" d="M25.839,32.387c-3.591,3.589-6.176,6.821-5.777,7.218c0.4,0.4,3.631-2.186,7.222-5.773L25.839,32.387z"/><path fill="#302C3B" d="M24.394,28.054c-3.589,3.589-6.174,6.82-5.774,7.22c0.399,0.399,3.632-2.188,7.22-5.777L24.394,28.054z"/><linearGradient id="SVGID_7_" x1="121.78" x2="145.512" y1="23.538" y2="23.538" gradientTransform="matrix(0.7071 0.7071 -0.7071 0.7071 -34.7554 -90.2472)" gradientUnits="userSpaceOnUse"><stop offset=".297" style="stop-color:#cfdde6"/><stop offset=".472" style="stop-color:#cad8e1"/><stop offset=".679" style="stop-color:#bccbd3"/><stop offset=".901" style="stop-color:#a6b4bb"/><stop offset="1" style="stop-color:#99a8ae"/></linearGradient><path fill="url(#SVGID_7_)" d="M61.979,2.021c0,0-15.381-1.4-35.656,18.876c-9.089,9.089-8.267,12.707-2.098,18.877	c6.172,6.172,9.789,6.992,18.879-2.098C63.378,17.401,61.979,2.021,61.979,2.021z"/><circle cx="43.103" cy="20.899" r="6.754" fill="#E81C27"/><linearGradient id="SVGID_8_" x1="208.811" x2="218.462" y1="-44.46" y2="-44.46" gradientTransform="matrix(0 1 -1 0 -1.3579 -192.7368)" gradientUnits="userSpaceOnUse"><stop offset="0" style="stop-color:#4ecee6"/><stop offset=".198" style="stop-color:#46c9e8"/><stop offset=".504" style="stop-color:#30baec"/><stop offset=".879" style="stop-color:#0da3f4"/><stop offset="1" style="stop-color:#009af7"/></linearGradient><circle cx="43.103" cy="20.899" r="4.825" fill="url(#SVGID_8_)"/><path fill="#FFF" d="M47.539,17.146c-0.456,0.456-1.139-0.227-0.684-0.682S47.993,16.691,47.539,17.146z"/><path fill="#FFF" d="M39.352,25.333c-0.456,0.456-1.139-0.227-0.684-0.682S39.806,24.879,39.352,25.333z"/><path fill="#FFF" d="M46.855,25.334c-0.456-0.456,0.227-1.138,0.683-0.682C47.992,25.106,47.311,25.789,46.855,25.334z"/><path fill="#FFF" d="M38.668,17.146c-0.456-0.456,0.227-1.138,0.683-0.682C39.805,16.918,39.122,17.601,38.668,17.146z"/><path fill="#FFF" d="M48.893,21.38c-0.643,0.001-0.643-0.964,0-0.964C49.535,20.416,49.535,21.38,48.893,21.38z"/><path fill="#FFF" d="M37.313,21.381c-0.645-0.001-0.645-0.965-0.001-0.966C37.956,20.417,37.956,21.381,37.313,21.381z"/><path fill="#FFF" d="M42.62,26.688c0.001-0.644,0.966-0.644,0.965,0C43.586,27.332,42.621,27.332,42.62,26.688z"/><path fill="#FFF" d="M42.62,15.11c0-0.645,0.965-0.645,0.966,0C43.585,15.752,42.62,15.752,42.62,15.11z"/><linearGradient id="SVGID_9_" x1="132.589" x2="134.701" y1="50.036" y2="50.036" gradientTransform="matrix(0.7071 0.7071 -0.7071 0.7071 -34.7554 -90.2472)" gradientUnits="userSpaceOnUse"><stop offset="0" style="stop-color:#2289c7"/><stop offset="1" style="stop-color:#005687"/></linearGradient><path fill="url(#SVGID_9_)" d="M23.619,38.888c3.707-3.708,7.047-6.379,7.459-5.966c0.413,0.413-2.259,3.751-5.966,7.459	c-3.707,3.707-7.047,6.379-7.46,5.966C17.24,45.935,19.912,42.595,23.619,38.888z"/><linearGradient id="SVGID_10_" x1="125.757" x2="141.533" y1="3.938" y2="3.938" gradientTransform="matrix(0.7071 0.7071 -0.7071 0.7071 -34.7554 -90.2472)" gradientUnits="userSpaceOnUse"><stop offset="0" style="stop-color:#ff000e"/><stop offset=".728" style="stop-color:#dd0004"/><stop offset="1" style="stop-color:#cf0000"/></linearGradient><path fill="url(#SVGID_10_)" d="M61.98,2.021c0,0-5.765-0.515-14.879,3.722c2.514,4.475,6.681,8.642,11.155,11.156	C62.494,7.785,61.98,2.021,61.98,2.021z"/></svg>