<?xml version="1.0" encoding="UTF-8"?>
<svg viewBox="0 0 600 240"  xmlns="http://www.w3.org/2000/svg" xmlns:xlink="http://www.w3.org/1999/xlink">
  <path
    d="M501.967 90.563c9.497 4.224 15.032 11.678 17.301 21.7.233 1.025.39 2.075.587 3.115v9.086c-.087.27-.224.536-.254.812-1.342 13.307-11.452 24.056-24.652 26.21-5.305.872-10.535.596-15.644-1.027-8.289-2.64-14.326-7.954-17.734-15.943-4.086-9.577-4.168-19.354-.038-28.92 4.343-10.054 12.274-15.673 23.068-17.224 5.971-.857 11.826-.275 17.366 2.19zm-411.644-.128c5.47 7.5 10.997 14.955 16.507 22.433 4.727 6.409 9.454 12.817 14.182 19.224.315.428.642.848 1.035 1.364.42-.604.254-1.197.254-1.738.011-13.293.014-26.583.008-39.87v-.387c.007-2.26.12-2.376 2.343-2.383h4.924c2.022 0 2.097.077 2.102 2.032v57.462c0 2.284 0 2.284-2.265 2.286-1.613 0-3.225-.066-4.838.023-1.112.062-1.782-.356-2.422-1.242-5.044-6.962-10.136-13.892-15.213-20.83l-16.1-21.992a3.715 3.715 0 0 0-1.228-1.137v42.873c0 2.274-.03 2.303-2.281 2.305-1.76 0-3.519-.028-5.278.013-.769.019-1.442-.14-2.053-.597l.001-60.705a5.117 5.117 0 0 1 2.531-.512c1.66.051 3.325.09 4.985-.009 1.26-.075 2.053.358 2.806 1.387zM291.43 89.07c.915 0 1.245.55 1.538 1.286 1.958 4.894 3.941 9.778 5.913 14.662a36636.466 36636.466 0 0 0 17.56 43.44c.81 1.99.332 2.492-1.605 2.42-2.146-.085-4.297-.016-6.45-.02h-.323c-1.294-.01-1.334-.117-1.904-1.544-1.378-3.445-2.753-6.89-4.125-10.334-.163-.406-.335-.808-.552-1.33H273c-.202.456-.43.929-.624 1.415-1.377 3.445-2.749 6.89-4.117 10.335-.587 1.449-.587 1.452-2.137 1.456-2.1.008-4.202-.061-6.304.02-2.457.095-2.557-.574-1.76-2.517 2.566-6.28 5.078-12.582 7.609-18.875l15.507-38.581c.11-.271.226-.541.324-.817.24-.674.686-1.019 1.428-1.016 2.833.013 5.667.02 8.504 0zm102.599-.015c1.066-.014 1.415.618 1.75 1.434 3.322 8.084 6.654 16.163 9.993 24.238 2.214 5.37 4.431 10.74 6.65 16.109.179.444.383.878.717 1.633.368-.84.61-1.365.831-1.899l16.435-39.638c.132-.315.267-.629.388-.948.24-.622.687-.908 1.354-.907 3.322 0 6.644-.016 9.97.015 1.026.01 1.249.3 1.31 1.345.02.341 0 .684 0 1.026v57.017c0 2.37 0 2.372-2.332 2.372l-3.616.006c-.603 0-1.206-.002-1.81-.006-1.319-.013-1.53-.226-1.581-1.518-.018-.44 0-.88 0-1.32v-40.162c0-.513-.027-1.026-.302-1.557l-.472 1.05c-.078.175-.154.351-.228.529-5.659 13.665-11.316 27.332-16.97 41.002-.131.315-.272.627-.383.951-.255.748-.748 1.051-1.553 1.035-3.831-.079-2.995.493-4.34-2.76a31634.934 31634.934 0 0 1-16.69-40.486 2.991 2.991 0 0 0-.879-1.263v42.84c-.028 1.421-.224 1.644-1.594 1.656-2.1.018-4.202.02-6.304 0-1.207-.012-1.428-.26-1.467-1.466-.01-.293 0-.587 0-.88V90.595c.04-1.22.266-1.503 1.446-1.513 3.226-.028 6.451.019 9.677-.027zm-203.76.022c.96.081 1.235.307 1.254 1.248.038 2.003.038 4.007 0 6.012-.017 1.035-.27 1.235-1.344 1.301-.39.024-.782.01-1.173.01h-29.168v17.33c.542.023 1.058.064 1.576.065h28.215c1.852.008 1.853.128 1.856 2.169 0 1.563.012 3.126 0 4.692-.014 1.522-.179 1.67-1.854 1.671h-29.576c-.35 1.056-.44 16.725-.104 18.747h29.081l.783-.007c.13 0 .26.002.39.007 1.068.051 1.302.242 1.32 1.303.035 1.955.035 3.91 0 5.865-.02 1.117-.266 1.334-1.428 1.352-1.563.025-3.126.007-4.692.007h-32.681c-.392 0-.785.023-1.173-.01-.828-.074-1.078-.342-1.15-1.204-.024-.293-.007-.586-.007-.88V91.16c0-.341 0-.684.013-1.026.033-.64.41-.972 1.02-1.036.39-.03.781-.04 1.172-.028h36.79c.293 0 .586-.016.88.008zm132.444-.007h43.021c1.927.01 1.95.156 1.952 2.261 0 1.515.007 3.03 0 4.545-.01 1.576-.183 1.76-1.774 1.76-5.13.01-10.261.01-15.395 0h-1.882v51.38c-.008 1.834-.13 1.834-2.208 1.834l-3.714.006c-.62 0-1.239-.001-1.858-.006-1.32-.013-1.545-.25-1.59-1.517-.014-.39 0-.782 0-1.173V97.647H322.84c-.391 0-.783.018-1.173-.01-1.04-.073-1.274-.283-1.292-1.352a183.28 183.28 0 0 1 0-5.865c.017-1.039.28-1.27 1.311-1.343.34-.023.683-.007 1.027-.007zm-113.544 0h43.025c1.855.008 1.97.127 1.977 2.015v4.774c-.01 1.582-.19 1.78-1.759 1.782-5.13.012-10.261.012-15.395 0h-1.894v50.862c0 2.346 0 2.346-2.365 2.346l-3.616.006c-.603 0-1.206-.002-1.809-.006-1.32-.013-1.54-.24-1.58-1.517-.012-.392 0-.783 0-1.173V97.647h-16.445c-.39 0-.783.016-1.173-.01-1.026-.069-1.305-.31-1.32-1.344-.039-1.955-.039-3.91 0-5.865.021-1.027.322-1.279 1.327-1.35.34-.024.684-.008 1.027-.008zm260.878 20.748c-2.43 6.544-2.469 13.209-.146 19.802 3.05 8.615 10.396 13.766 19.441 13.772 8.674 0 15.81-4.753 19.085-12.803 2.18-5.357 2.55-10.912 1.41-16.543-2.151-10.651-9.605-16.325-17.678-17.277-9.054-1.069-18.307 2.795-22.112 13.049zm-182.983-9.039l-11.143 28.158 22.37-.007c-.596-2.408-10.528-27.343-11.227-28.151z"
    fill="currentColor"
    stroke="none"
    strokeWidth="1"
    fillRule="evenodd"
  />
</svg>
